<?xml version="1.0" encoding="utf-8"?>
<svg version="1.1" xmlns:xlink="http://www.w3.org/1999/xlink" width="90px" height="50px" xmlns="http://www.w3.org/2000/svg">
  <g transform="matrix(1 0 0 1 -623 -252 )">
    <path d="M 624 256  A 3 3 0 0 1 627 253 L 709 253  A 3 3 0 0 1 712 256 L 712 298  A 3 3 0 0 1 709 301 L 627 301  A 3 3 0 0 1 624 298 L 624 256  Z " fill-rule="nonzero" fill="#ffffff" stroke="none" />
    <path d="M 623.5 256  A 3.5 3.5 0 0 1 627 252.5 L 709 252.5  A 3.5 3.5 0 0 1 712.5 256 L 712.5 298  A 3.5 3.5 0 0 1 709 301.5 L 627 301.5  A 3.5 3.5 0 0 1 623.5 298 L 623.5 256  Z " stroke-width="1" stroke="#000000" fill="none" stroke-opacity="0.149019607843137" />
  </g>
</svg>