<?xml version="1.0" encoding="utf-8"?>
<svg version="1.1" xmlns:xlink="http://www.w3.org/1999/xlink" width="820px" height="216px" xmlns="http://www.w3.org/2000/svg">
  <g transform="matrix(1 0 0 1 -545 -668 )">
    <path d="M 546 672  A 3 3 0 0 1 549 669 L 1361 669  A 3 3 0 0 1 1364 672 L 1364 880  A 3 3 0 0 1 1361 883 L 549 883  A 3 3 0 0 1 546 880 L 546 672  Z " fill-rule="nonzero" fill="#ffffff" stroke="none" />
    <path d="M 545.5 672  A 3.5 3.5 0 0 1 549 668.5 L 1361 668.5  A 3.5 3.5 0 0 1 1364.5 672 L 1364.5 880  A 3.5 3.5 0 0 1 1361 883.5 L 549 883.5  A 3.5 3.5 0 0 1 545.5 880 L 545.5 672  Z " stroke-width="1" stroke="#000000" fill="none" stroke-opacity="0.149019607843137" />
  </g>
</svg>