<?xml version="1.0" encoding="utf-8"?>
<svg version="1.1" xmlns:xlink="http://www.w3.org/1999/xlink" width="426px" height="105px" xmlns="http://www.w3.org/2000/svg">
  <g transform="matrix(1 0 0 1 -2091 -443 )">
    <path d="M 2092 447  A 3 3 0 0 1 2095 444 L 2513 444  A 3 3 0 0 1 2516 447 L 2516 544  A 3 3 0 0 1 2513 547 L 2095 547  A 3 3 0 0 1 2092 544 L 2092 447  Z " fill-rule="nonzero" fill="#ffffff" stroke="none" />
    <path d="M 2091.5 447  A 3.5 3.5 0 0 1 2095 443.5 L 2513 443.5  A 3.5 3.5 0 0 1 2516.5 447 L 2516.5 544  A 3.5 3.5 0 0 1 2513 547.5 L 2095 547.5  A 3.5 3.5 0 0 1 2091.5 544 L 2091.5 447  Z " stroke-width="1" stroke="#000000" fill="none" stroke-opacity="0.149019607843137" />
  </g>
</svg>