<?xml version="1.0" encoding="utf-8"?>
<svg version="1.1" xmlns:xlink="http://www.w3.org/1999/xlink" width="426px" height="38px" xmlns="http://www.w3.org/2000/svg">
  <g transform="matrix(1 0 0 1 -2091 -390 )">
    <path d="M 2092 394  A 3 3 0 0 1 2095 391 L 2513 391  A 3 3 0 0 1 2516 394 L 2516 424  A 3 3 0 0 1 2513 427 L 2095 427  A 3 3 0 0 1 2092 424 L 2092 394  Z " fill-rule="nonzero" fill="#ffffff" stroke="none" />
    <path d="M 2091.5 394  A 3.5 3.5 0 0 1 2095 390.5 L 2513 390.5  A 3.5 3.5 0 0 1 2516.5 394 L 2516.5 424  A 3.5 3.5 0 0 1 2513 427.5 L 2095 427.5  A 3.5 3.5 0 0 1 2091.5 424 L 2091.5 394  Z " stroke-width="1" stroke="#000000" fill="none" stroke-opacity="0.149019607843137" />
  </g>
</svg>