<?xml version="1.0" encoding="utf-8"?>
<svg version="1.1" xmlns:xlink="http://www.w3.org/1999/xlink" width="426px" height="90px" xmlns="http://www.w3.org/2000/svg">
  <g transform="matrix(1 0 0 1 -2092 -416 )">
    <path d="M 2093 420  A 3 3 0 0 1 2096 417 L 2514 417  A 3 3 0 0 1 2517 420 L 2517 502  A 3 3 0 0 1 2514 505 L 2096 505  A 3 3 0 0 1 2093 502 L 2093 420  Z " fill-rule="nonzero" fill="#ffffff" stroke="none" />
    <path d="M 2092.5 420  A 3.5 3.5 0 0 1 2096 416.5 L 2514 416.5  A 3.5 3.5 0 0 1 2517.5 420 L 2517.5 502  A 3.5 3.5 0 0 1 2514 505.5 L 2096 505.5  A 3.5 3.5 0 0 1 2092.5 502 L 2092.5 420  Z " stroke-width="1" stroke="#000000" fill="none" stroke-opacity="0.149019607843137" />
  </g>
</svg>