<?xml version="1.0" encoding="utf-8"?>
<svg version="1.1" xmlns:xlink="http://www.w3.org/1999/xlink" width="168px" height="38px" xmlns="http://www.w3.org/2000/svg">
  <g transform="matrix(1 0 0 1 -2091 -334 )">
    <path d="M 2092 338  A 3 3 0 0 1 2095 335 L 2255 335  A 3 3 0 0 1 2258 338 L 2258 368  A 3 3 0 0 1 2255 371 L 2095 371  A 3 3 0 0 1 2092 368 L 2092 338  Z " fill-rule="nonzero" fill="#ffffff" stroke="none" />
    <path d="M 2091.5 338  A 3.5 3.5 0 0 1 2095 334.5 L 2255 334.5  A 3.5 3.5 0 0 1 2258.5 338 L 2258.5 368  A 3.5 3.5 0 0 1 2255 371.5 L 2095 371.5  A 3.5 3.5 0 0 1 2091.5 368 L 2091.5 338  Z " stroke-width="1" stroke="#000000" fill="none" stroke-opacity="0.149019607843137" />
  </g>
</svg>