<?xml version="1.0" encoding="utf-8"?>
<svg version="1.1" xmlns:xlink="http://www.w3.org/1999/xlink" width="150px" height="150px" xmlns="http://www.w3.org/2000/svg">
  <g transform="matrix(1 0 0 1 -134 -204 )">
    <path d="M 134 204  L 284 204  L 284 354  L 134 354  L 134 204  " fill-rule="nonzero" fill="#cccccc" stroke="none" />
    <path d="M 145 215  L 273 215  L 273 343  L 145 343  L 145 215  " fill-rule="nonzero" fill="#ffffff" stroke="none" />
    <path d="M 223.25 249  C 216.95 249  212 244.05  212 237.75  C 212 231.45  216.95 226.5  223.25 226.5  C 229.55 226.5  234.5 231.45  234.5 237.75  C 234.5 244.05  229.55 249  223.25 249  " fill-rule="nonzero" fill="#cccccc" stroke="none" />
    <path d="M 149 339  L 149 273  L 179 243  L 221 267  L 245 261  L 269 267  L 269 339  L 149 339  " fill-rule="nonzero" fill="#169bd5" stroke="none" />
  </g>
</svg>