<?xml version="1.0" encoding="utf-8"?>
<svg version="1.1" xmlns:xlink="http://www.w3.org/1999/xlink" width="277px" height="170px" xmlns="http://www.w3.org/2000/svg">
  <g transform="matrix(1 0 0 1 -166 -490 )">
    <path d="M 166 490  L 443 490  L 443 660  L 166 660  L 166 490  " fill-rule="nonzero" fill="#cccccc" stroke="none" />
    <path d="M 178 502  L 431 502  L 431 648  L 178 648  L 178 502  " fill-rule="nonzero" fill="#ffffff" stroke="none" />
    <path d="M 322.79 541  C 315.65 541  310.04 535.39  310.04 528.25  C 310.04 521.11  315.65 515.5  322.79 515.5  C 329.93 515.5  335.54 521.11  335.54 528.25  C 335.54 535.39  329.93 541  322.79 541  " fill-rule="nonzero" fill="#cccccc" stroke="none" />
    <path d="M 183 644  L 183 568.65  L 244 534.4  L 329.4 593.552346570397  L 378.2 554.95  L 427 593.552346570397  L 427 644  L 183 644  " fill-rule="nonzero" fill="#169bd5" stroke="none" />
  </g>
</svg>