<?xml version="1.0" encoding="utf-8"?>
<svg version="1.1" xmlns:xlink="http://www.w3.org/1999/xlink" width="449px" height="38px" xmlns="http://www.w3.org/2000/svg">
  <g transform="matrix(1 0 0 1 -2159 -253 )">
    <path d="M 2160 257  A 3 3 0 0 1 2163 254 L 2604 254  A 3 3 0 0 1 2607 257 L 2607 287  A 3 3 0 0 1 2604 290 L 2163 290  A 3 3 0 0 1 2160 287 L 2160 257  Z " fill-rule="nonzero" fill="#ffffff" stroke="none" />
    <path d="M 2159.5 257  A 3.5 3.5 0 0 1 2163 253.5 L 2604 253.5  A 3.5 3.5 0 0 1 2607.5 257 L 2607.5 287  A 3.5 3.5 0 0 1 2604 290.5 L 2163 290.5  A 3.5 3.5 0 0 1 2159.5 287 L 2159.5 257  Z " stroke-width="1" stroke="#000000" fill="none" stroke-opacity="0.149019607843137" />
  </g>
</svg>