<?xml version="1.0" encoding="utf-8"?>
<svg version="1.1" xmlns:xlink="http://www.w3.org/1999/xlink" width="40px" height="40px" xmlns="http://www.w3.org/2000/svg">
  <g transform="matrix(1 0 0 1 -2007 -246 )">
    <path d="M 2007 246  L 2047 246  L 2047 286  L 2007 286  L 2007 246  " fill-rule="nonzero" fill="#cccccc" stroke="none" />
    <path d="M 2010 249  L 2044 249  L 2044 283  L 2010 283  L 2010 249  " fill-rule="nonzero" fill="#ffffff" stroke="none" />
    <path d="M 2030.8 258  C 2029.12 258  2027.8 256.68  2027.8 255  C 2027.8 253.32  2029.12 252  2030.8 252  C 2032.48 252  2033.8 253.32  2033.8 255  C 2033.8 256.68  2032.48 258  2030.8 258  " fill-rule="nonzero" fill="#cccccc" stroke="none" />
    <path d="M 2011 282  L 2011 264.4  L 2019 256.4  L 2030.2 262.8  L 2036.6 261.2  L 2043 262.8  L 2043 282  L 2011 282  " fill-rule="nonzero" fill="#169bd5" stroke="none" />
  </g>
</svg>