<?xml version="1.0" encoding="utf-8"?>
<svg version="1.1" xmlns:xlink="http://www.w3.org/1999/xlink" width="275px" height="183px" xmlns="http://www.w3.org/2000/svg">
  <g transform="matrix(1 0 0 1 -513 -399 )">
    <path d="M 513 399  L 788 399  L 788 582  L 513 582  L 513 399  " fill-rule="nonzero" fill="#cccccc" stroke="none" />
    <path d="M 526 412  L 775 412  L 775 569  L 526 569  L 526 412  " fill-rule="nonzero" fill="#ffffff" stroke="none" />
    <path d="M 669.725 453.9  C 662.039 453.9  656 447.861  656 440.175  C 656 432.489  662.039 426.45  669.725 426.45  C 677.411 426.45  683.45 432.489  683.45 440.175  C 683.45 447.861  677.411 453.9  669.725 453.9  " fill-rule="nonzero" fill="#cccccc" stroke="none" />
    <path d="M 531 565  L 531 483.6  L 591 446.6  L 675 505.907636363636  L 723 468.8  L 771 505.907636363636  L 771 565  L 531 565  " fill-rule="nonzero" fill="#169bd5" stroke="none" />
  </g>
</svg>