<?xml version="1.0" encoding="utf-8"?>
<svg version="1.1" xmlns:xlink="http://www.w3.org/1999/xlink" width="12px" height="12px" xmlns="http://www.w3.org/2000/svg">
  <g transform="matrix(1 0 0 1 -545 -531 )">
    <path d="M 551 531  C 554.36 531  557 533.64  557 537  C 557 540.36  554.36 543  551 543  C 547.64 543  545 540.36  545 537  C 545 533.64  547.64 531  551 531  Z " fill-rule="nonzero" fill="#ffffff" stroke="none" />
    <path d="M 551 531.5  C 554.08 531.5  556.5 533.92  556.5 537  C 556.5 540.08  554.08 542.5  551 542.5  C 547.92 542.5  545.5 540.08  545.5 537  C 545.5 533.92  547.92 531.5  551 531.5  Z " stroke-width="1" stroke="#dcdfe6" fill="none" />
  </g>
</svg>