<?xml version="1.0" encoding="utf-8"?>
<svg version="1.1" xmlns:xlink="http://www.w3.org/1999/xlink" width="358px" height="176px" xmlns="http://www.w3.org/2000/svg">
  <g transform="matrix(1 0 0 1 -2396 -554 )">
    <path d="M 2397 558  A 3 3 0 0 1 2400 555 L 2750 555  A 3 3 0 0 1 2753 558 L 2753 726  A 3 3 0 0 1 2750 729 L 2400 729  A 3 3 0 0 1 2397 726 L 2397 558  Z " fill-rule="nonzero" fill="#ffffff" stroke="none" />
    <path d="M 2396.5 558  A 3.5 3.5 0 0 1 2400 554.5 L 2750 554.5  A 3.5 3.5 0 0 1 2753.5 558 L 2753.5 726  A 3.5 3.5 0 0 1 2750 729.5 L 2400 729.5  A 3.5 3.5 0 0 1 2396.5 726 L 2396.5 558  Z " stroke-width="1" stroke="#000000" fill="none" stroke-opacity="0.149019607843137" />
  </g>
</svg>