<?xml version="1.0" encoding="utf-8"?>
<svg version="1.1" xmlns:xlink="http://www.w3.org/1999/xlink" width="645px" height="103px" xmlns="http://www.w3.org/2000/svg">
  <g transform="matrix(1 0 0 1 -845 -236 )">
    <path d="M 846 240  A 3 3 0 0 1 849 237 L 1486 237  A 3 3 0 0 1 1489 240 L 1489 335  A 3 3 0 0 1 1486 338 L 849 338  A 3 3 0 0 1 846 335 L 846 240  Z " fill-rule="nonzero" fill="#ffffff" stroke="none" />
    <path d="M 845.5 240  A 3.5 3.5 0 0 1 849 236.5 L 1486 236.5  A 3.5 3.5 0 0 1 1489.5 240 L 1489.5 335  A 3.5 3.5 0 0 1 1486 338.5 L 849 338.5  A 3.5 3.5 0 0 1 845.5 335 L 845.5 240  Z " stroke-width="1" stroke="#000000" fill="none" stroke-opacity="0.149019607843137" />
  </g>
</svg>