<?xml version="1.0" encoding="utf-8"?>
<svg version="1.1" xmlns:xlink="http://www.w3.org/1999/xlink" width="820px" height="70px" xmlns="http://www.w3.org/2000/svg">
  <g transform="matrix(1 0 0 1 -545 -364 )">
    <path d="M 546 368  A 3 3 0 0 1 549 365 L 1361 365  A 3 3 0 0 1 1364 368 L 1364 430  A 3 3 0 0 1 1361 433 L 549 433  A 3 3 0 0 1 546 430 L 546 368  Z " fill-rule="nonzero" fill="#ffffff" stroke="none" />
    <path d="M 545.5 368  A 3.5 3.5 0 0 1 549 364.5 L 1361 364.5  A 3.5 3.5 0 0 1 1364.5 368 L 1364.5 430  A 3.5 3.5 0 0 1 1361 433.5 L 549 433.5  A 3.5 3.5 0 0 1 545.5 430 L 545.5 368  Z " stroke-width="1" stroke="#000000" fill="none" stroke-opacity="0.149019607843137" />
  </g>
</svg>