<?xml version="1.0" encoding="utf-8"?>
<svg version="1.1" xmlns:xlink="http://www.w3.org/1999/xlink" width="820px" height="157px" xmlns="http://www.w3.org/2000/svg">
  <g transform="matrix(1 0 0 1 -545 -570 )">
    <path d="M 546 574  A 3 3 0 0 1 549 571 L 1361 571  A 3 3 0 0 1 1364 574 L 1364 723  A 3 3 0 0 1 1361 726 L 549 726  A 3 3 0 0 1 546 723 L 546 574  Z " fill-rule="nonzero" fill="#ffffff" stroke="none" />
    <path d="M 545.5 574  A 3.5 3.5 0 0 1 549 570.5 L 1361 570.5  A 3.5 3.5 0 0 1 1364.5 574 L 1364.5 723  A 3.5 3.5 0 0 1 1361 726.5 L 549 726.5  A 3.5 3.5 0 0 1 545.5 723 L 545.5 574  Z " stroke-width="1" stroke="#000000" fill="none" stroke-opacity="0.149019607843137" />
  </g>
</svg>