<?xml version="1.0" encoding="utf-8"?>
<svg version="1.1" xmlns:xlink="http://www.w3.org/1999/xlink" width="558px" height="38px" xmlns="http://www.w3.org/2000/svg">
  <g transform="matrix(1 0 0 1 -545 -365 )">
    <path d="M 546 369  A 3 3 0 0 1 549 366 L 1099 366  A 3 3 0 0 1 1102 369 L 1102 399  A 3 3 0 0 1 1099 402 L 549 402  A 3 3 0 0 1 546 399 L 546 369  Z " fill-rule="nonzero" fill="#ffffff" stroke="none" />
    <path d="M 545.5 369  A 3.5 3.5 0 0 1 549 365.5 L 1099 365.5  A 3.5 3.5 0 0 1 1102.5 369 L 1102.5 399  A 3.5 3.5 0 0 1 1099 402.5 L 549 402.5  A 3.5 3.5 0 0 1 545.5 399 L 545.5 369  Z " stroke-width="1" stroke="#000000" fill="none" stroke-opacity="0.149019607843137" />
  </g>
</svg>