<?xml version="1.0" encoding="utf-8"?>
<svg version="1.1" xmlns:xlink="http://www.w3.org/1999/xlink" width="189px" height="38px" xmlns="http://www.w3.org/2000/svg">
  <g transform="matrix(1 0 0 1 -2220 -463 )">
    <path d="M 2221 467  A 3 3 0 0 1 2224 464 L 2405 464  A 3 3 0 0 1 2408 467 L 2408 497  A 3 3 0 0 1 2405 500 L 2224 500  A 3 3 0 0 1 2221 497 L 2221 467  Z " fill-rule="nonzero" fill="#ffffff" stroke="none" />
    <path d="M 2220.5 467  A 3.5 3.5 0 0 1 2224 463.5 L 2405 463.5  A 3.5 3.5 0 0 1 2408.5 467 L 2408.5 497  A 3.5 3.5 0 0 1 2405 500.5 L 2224 500.5  A 3.5 3.5 0 0 1 2220.5 497 L 2220.5 467  Z " stroke-width="1" stroke="#000000" fill="none" stroke-opacity="0.149019607843137" />
  </g>
</svg>