<?xml version="1.0" encoding="utf-8"?>
<svg version="1.1" xmlns:xlink="http://www.w3.org/1999/xlink" width="168px" height="25px" xmlns="http://www.w3.org/2000/svg">
  <g transform="matrix(1 0 0 1 -198 -295 )">
    <path d="M 199 299  A 3 3 0 0 1 202 296 L 362 296  A 3 3 0 0 1 365 299 L 365 316  A 3 3 0 0 1 362 319 L 202 319  A 3 3 0 0 1 199 316 L 199 299  Z " fill-rule="nonzero" fill="#ffffff" stroke="none" />
    <path d="M 198.5 299  A 3.5 3.5 0 0 1 202 295.5 L 362 295.5  A 3.5 3.5 0 0 1 365.5 299 L 365.5 316  A 3.5 3.5 0 0 1 362 319.5 L 202 319.5  A 3.5 3.5 0 0 1 198.5 316 L 198.5 299  Z " stroke-width="1" stroke="#000000" fill="none" stroke-opacity="0.149019607843137" />
  </g>
</svg>