<?xml version="1.0" encoding="utf-8"?>
<svg version="1.1" xmlns:xlink="http://www.w3.org/1999/xlink" width="918px" height="38px" xmlns="http://www.w3.org/2000/svg">
  <g transform="matrix(1 0 0 1 -545 -232 )">
    <path d="M 546 236  A 3 3 0 0 1 549 233 L 1459 233  A 3 3 0 0 1 1462 236 L 1462 266  A 3 3 0 0 1 1459 269 L 549 269  A 3 3 0 0 1 546 266 L 546 236  Z " fill-rule="nonzero" fill="#ffffff" stroke="none" />
    <path d="M 545.5 236  A 3.5 3.5 0 0 1 549 232.5 L 1459 232.5  A 3.5 3.5 0 0 1 1462.5 236 L 1462.5 266  A 3.5 3.5 0 0 1 1459 269.5 L 549 269.5  A 3.5 3.5 0 0 1 545.5 266 L 545.5 236  Z " stroke-width="1" stroke="#000000" fill="none" stroke-opacity="0.149019607843137" />
  </g>
</svg>