<?xml version="1.0" encoding="utf-8"?>
<svg version="1.1" xmlns:xlink="http://www.w3.org/1999/xlink" width="223px" height="50px" xmlns="http://www.w3.org/2000/svg">
  <g transform="matrix(1 0 0 1 -303 -252 )">
    <path d="M 304 256  A 3 3 0 0 1 307 253 L 522 253  A 3 3 0 0 1 525 256 L 525 298  A 3 3 0 0 1 522 301 L 307 301  A 3 3 0 0 1 304 298 L 304 256  Z " fill-rule="nonzero" fill="#409eff" stroke="none" />
    <path d="M 303.5 256  A 3.5 3.5 0 0 1 307 252.5 L 522 252.5  A 3.5 3.5 0 0 1 525.5 256 L 525.5 298  A 3.5 3.5 0 0 1 522 301.5 L 307 301.5  A 3.5 3.5 0 0 1 303.5 298 L 303.5 256  Z " stroke-width="1" stroke="#000000" fill="none" stroke-opacity="0.149019607843137" />
  </g>
</svg>