<?xml version="1.0" encoding="utf-8"?>
<svg version="1.1" xmlns:xlink="http://www.w3.org/1999/xlink" width="67px" height="38px" xmlns="http://www.w3.org/2000/svg">
  <g transform="matrix(1 0 0 1 -2188 -116 )">
    <path d="M 2189 120  A 3 3 0 0 1 2192 117 L 2251 117  A 3 3 0 0 1 2254 120 L 2254 150  A 3 3 0 0 1 2251 153 L 2192 153  A 3 3 0 0 1 2189 150 L 2189 120  Z " fill-rule="nonzero" fill="#ffffff" stroke="none" />
    <path d="M 2188.5 120  A 3.5 3.5 0 0 1 2192 116.5 L 2251 116.5  A 3.5 3.5 0 0 1 2254.5 120 L 2254.5 150  A 3.5 3.5 0 0 1 2251 153.5 L 2192 153.5  A 3.5 3.5 0 0 1 2188.5 150 L 2188.5 120  Z " stroke-width="1" stroke="#000000" fill="none" stroke-opacity="0.149019607843137" />
  </g>
</svg>